<svg xmlns="http://www.w3.org/2000/svg" viewBox="0 0 320 320" width="320" height="320">
  <defs>
    <pattern id="hatch" patternUnits="userSpaceOnUse" width="8" height="8" patternTransform="rotate(45)">
      <line x1="0" y1="0" x2="0" y2="8" stroke="#888" stroke-width="1"/>
    </pattern>
  </defs>
  <line x1="40" y1="280" x2="300" y2="280" stroke="black" stroke-width="1.5"/>
  <line x1="40" y1="280" x2="40" y2="20" stroke="black" stroke-width="1.5"/>
  <polygon points="300,280 294,276 294,284" fill="black"/>
  <polygon points="40,20 36,26 44,26" fill="black"/>
  <rect x="40" y="40" width="240" height="240" fill="none" stroke="black" stroke-width="0.8"/>
  <polygon points="40,280 120,280 280,120 280,40 200,40 40,200"
           fill="url(#hatch)" stroke="none"/>
  <line x1="120" y1="280" x2="120" y2="275" stroke="black" stroke-width="1"/>
  <line x1="280" y1="280" x2="280" y2="275" stroke="black" stroke-width="1"/>
  <line x1="40" y1="200" x2="45" y2="200" stroke="black" stroke-width="1"/>
  <line x1="40" y1="40" x2="45" y2="40" stroke="black" stroke-width="1"/>
  <text x="295" y="298" font-size="14" font-family="serif" font-style="italic">x</text>
  <text x="22" y="18" font-size="14" font-family="serif" font-style="italic">y</text>
  <text x="30" y="298" font-size="12" font-family="serif">O</text>
  <text x="112" y="298" font-size="12" font-family="serif">20</text>
  <text x="272" y="298" font-size="12" font-family="serif">60</text>
  <text x="16" y="204" font-size="12" font-family="serif">20</text>
  <text x="16" y="46" font-size="12" font-family="serif">60</text>
  <text x="250" y="68" font-size="16" font-family="serif" font-style="italic">&#937;</text>
  <text x="120" y="180" font-size="16" font-family="serif" font-style="italic">A</text>
</svg>
